<svg data-name="Layer 1" xmlns="http://www.w3.org/2000/svg" viewBox="0 0 41 41"><path d="M20.5 0A20.5 20.5 0 1041 20.5 20.52 20.52 0 0020.5 0zm0 40A19.5 19.5 0 1140 20.5 19.52 19.52 0 0120.5 40z" fill="#c1c2c3"/><path d="M22.93 14.5h-4.86a3.58 3.58 0 00-3.57 3.57v4.85a3.58 3.58 0 003.57 3.58h4.85a3.58 3.58 0 003.58-3.57v-4.86a3.58 3.58 0 00-3.57-3.57zm0 10.79h-4.86a2.36 2.36 0 01-2.36-2.36v-4.86a2.36 2.36 0 012.36-2.36h4.85a2.36 2.36 0 012.36 2.36v4.85a2.36 2.36 0 01-2.35 2.37z" fill="#313539"/><path d="M20.5 17.5a3 3 0 102.12.88 3 3 0 00-2.12-.88zm0 4.83a1.83 1.83 0 111.83-1.83 1.83 1.83 0 01-1.83 1.83z" fill="#313539"/><circle cx="23.5" cy="17.5" r="1" fill="#313539"/></svg>